<?xml version="1.0" standalone="no"?>
<!DOCTYPE svg PUBLIC "-//W3C//DTD SVG 20010904//EN"
 "http://www.w3.org/TR/2001/REC-SVG-20010904/DTD/svg10.dtd">
<svg version="1.0" xmlns="http://www.w3.org/2000/svg"
 width="433.000000pt" height="439.000000pt" viewBox="0 0 433.000000 439.000000"
 preserveAspectRatio="xMidYMid meet">
<g transform="translate(0.000000,439.000000) scale(0.050000,-0.050000)"
fill="#111e36" stroke="none">
<path d="M0 4390 l0 -4390 4330 0 4330 0 0 4390 0 4390 -4330 0 -4330 0 0
-4390z m2260 3292 c0 -19 22 -111 50 -203 237 -806 1022 -1586 2290 -2278 264
-144 249 -142 302 -36 23 47 78 132 121 190 69 93 74 107 43 117 -100 30 -174
84 -216 157 -52 88 -86 201 -58 188 207 -101 300 -117 677 -117 l304 0 57 -60
c41 -43 76 -60 124 -60 168 0 266 -99 266 -269 0 -106 -2 -107 -69 -40 -130
130 -450 -34 -568 -291 l-51 -110 -1 -1720 -1 -1720 -115 -6 -115 -6 0 667 c0
735 -8 802 -124 1019 -175 328 -401 460 -852 497 -390 32 -674 126 -836 276
l-55 51 51 14 c28 7 214 20 413 28 425 17 456 35 118 69 -348 34 -795 99 -861
125 -137 53 -545 596 -449 596 3 0 91 -27 195 -61 200 -64 1027 -244 1077
-235 16 3 -100 54 -259 113 -393 146 -808 324 -1048 449 l-200 104 -84 170
c-81 162 -186 527 -186 646 0 49 14 42 250 -136 286 -215 511 -351 892 -542
571 -285 719 -333 363 -119 -804 485 -1487 1086 -1605 1411 -48 134 -50 607
-2 806 65 274 162 463 162 316z m2883 -159 c1350 -317 2343 -1552 2430 -3023
15 -258 0 -254 -42 10 -239 1510 -1218 2581 -2568 2812 -671 114 -1408 -45
-1967 -425 -138 -93 -124 -93 -184 -4 -61 89 -64 82 104 193 661 435 1518 604
2227 437z m-3027 -1366 l40 -62 -110 -168 c-278 -428 -446 -894 -545 -1517
-16 -98 -18 -71 -11 150 15 515 196 1076 500 1552 82 127 75 125 126 45z"/>
</g>
</svg>
