<?xml version="1.0" standalone="no"?>
<!DOCTYPE svg PUBLIC "-//W3C//DTD SVG 20010904//EN"
 "http://www.w3.org/TR/2001/REC-SVG-20010904/DTD/svg10.dtd">
<svg version="1.0" xmlns="http://www.w3.org/2000/svg"
 width="433.000000pt" height="439.000000pt" viewBox="0 0 433.000000 439.000000"
 preserveAspectRatio="xMidYMid meet">
<g transform="translate(0.000000,439.000000) scale(0.100000,-0.100000)"
fill="#000000" stroke="none">
<path d="M1085 3899 c-5 -7 -4 -10 3 -5 6 3 13 2 17 -4 3 -5 2 -10 -3 -10 -18
0 -42 -50 -63 -132 -11 -46 -23 -90 -26 -98 -4 -13 -13 -85 -15 -130 -1 -15
11 -167 16 -205 1 -11 10 -37 19 -57 10 -21 16 -43 15 -50 -2 -7 4 -12 12 -13
8 0 14 -7 12 -16 -1 -9 8 -24 20 -35 l23 -19 -19 23 c-11 12 -17 25 -13 28 6
6 32 -37 29 -48 -1 -4 9 -16 23 -26 13 -11 21 -23 17 -27 -4 -5 -2 -5 4 -2 14
8 37 -17 26 -28 -4 -5 -2 -6 3 -3 6 3 19 -4 30 -15 11 -11 14 -16 6 -12 -10 6
-12 4 -7 -4 5 -7 11 -10 14 -7 3 3 11 1 19 -6 11 -9 11 -14 -4 -32 -10 -12
-11 -15 -3 -8 17 15 34 16 25 2 -4 -6 -1 -9 7 -8 7 2 12 -3 10 -10 -1 -8 2
-11 7 -8 5 4 12 2 16 -4 4 -6 11 -8 16 -5 5 3 6 -1 3 -9 -4 -10 -1 -16 7 -16
8 0 25 -10 39 -21 14 -11 19 -17 11 -13 -8 4 -12 3 -8 -2 3 -6 2 -16 -3 -24
-8 -13 -11 -13 -22 -1 -9 10 -10 12 -1 7 8 -5 11 -2 7 7 -3 8 -12 14 -20 13
-20 -1 -142 85 -149 106 -4 11 -12 15 -23 11 -14 -6 -15 -4 -4 9 10 13 10 18
1 24 -8 5 -9 3 -4 -6 5 -8 3 -11 -6 -8 -8 3 -13 14 -11 24 2 17 2 17 -8 2 -24
-39 -47 5 -24 45 4 6 4 9 -1 5 -5 -5 -15 2 -23 13 -11 16 -12 23 -3 28 8 5 4
14 -11 26 -13 11 -17 13 -10 5 18 -21 14 -32 -7 -18 -26 16 -55 -9 -83 -70
-15 -30 -25 -41 -36 -37 -13 5 -13 3 -2 -11 11 -12 11 -17 2 -23 -12 -7 -68
-117 -92 -181 -7 -19 -16 -39 -20 -45 -3 -5 -13 -30 -20 -55 -7 -25 -18 -50
-23 -57 -5 -7 -6 -17 -2 -23 3 -5 1 -10 -4 -10 -6 0 -11 -9 -11 -21 0 -11 -7
-44 -15 -72 -8 -29 -16 -77 -19 -107 -3 -30 -8 -85 -12 -121 -6 -61 3 -226 12
-217 2 2 8 78 14 168 18 303 77 496 238 777 26 46 50 83 54 83 3 0 15 -15 26
-33 l19 -33 -57 -86 c-78 -118 -135 -239 -185 -393 -51 -153 -74 -266 -80
-390 -6 -111 9 -72 31 84 9 68 46 226 55 237 5 6 6 13 4 16 -8 8 16 58 27 58
5 0 6 4 3 10 -3 5 -1 28 5 51 9 33 14 39 22 28 8 -11 9 -10 4 5 -4 10 -1 25 5
32 6 8 8 14 5 14 -10 0 15 44 30 53 8 4 14 13 14 20 0 7 -4 6 -10 -3 -6 -9
-10 -10 -10 -3 0 7 8 16 18 22 9 5 16 12 15 15 -4 11 19 66 26 62 4 -3 13 4
20 16 9 15 9 18 0 13 -7 -5 -10 -3 -7 6 2 8 14 18 26 24 12 5 22 13 22 18 0 4
-6 5 -12 1 -9 -5 -9 -2 1 9 21 26 28 21 29 -25 1 -24 7 -57 13 -75 6 -18 7
-38 3 -44 -4 -7 -3 -9 3 -6 7 4 13 -8 17 -31 10 -56 38 -134 58 -161 10 -13
18 -30 18 -38 0 -7 7 -16 15 -19 8 -4 15 -13 15 -21 0 -9 6 -13 15 -9 8 3 15
2 15 -2 0 -4 15 -13 33 -20 58 -25 97 -46 97 -55 0 -5 7 -7 15 -3 8 3 15 1 15
-4 0 -6 8 -10 18 -10 15 0 15 -2 2 -10 -11 -8 -7 -9 14 -4 20 5 27 4 22 -4 -5
-8 -2 -10 8 -6 9 3 16 1 16 -5 0 -6 20 -16 44 -22 25 -6 47 -18 50 -26 4 -10
13 -12 27 -8 13 5 19 3 15 -3 -3 -5 0 -10 7 -9 34 1 47 -5 47 -20 0 -11 -3
-14 -8 -7 -4 6 -34 15 -66 19 -66 8 -88 14 -82 24 2 3 -14 6 -36 7 -23 0 -43
6 -49 15 -5 7 -9 10 -9 5 0 -5 -7 -3 -15 4 -8 7 -15 10 -15 6 0 -3 -11 -1 -25
4 -21 8 -27 6 -41 -14 -14 -23 -13 -28 10 -75 15 -28 25 -56 24 -63 -2 -8 5
-12 17 -10 11 2 17 1 13 -4 -4 -4 2 -16 14 -26 19 -16 20 -21 8 -30 -13 -8
-12 -9 2 -5 17 6 42 -15 31 -26 -3 -4 1 -7 10 -7 9 0 19 -5 23 -12 5 -7 2 -8
-7 -3 -8 5 -11 4 -6 -1 5 -5 12 -9 16 -9 9 0 41 -31 38 -36 -1 -2 0 -3 2 -1 3
1 14 -4 25 -11 24 -16 69 -26 141 -33 28 -3 64 -10 81 -15 17 -5 40 -7 50 -4
15 5 16 4 4 -3 -8 -5 -34 -10 -58 -9 -53 0 -89 -27 -67 -49 8 -8 13 -20 11
-27 -1 -7 -1 -9 1 -5 3 4 15 -4 27 -17 13 -14 26 -22 29 -18 4 3 7 1 7 -5 0
-7 3 -11 8 -11 21 4 32 -2 26 -13 -5 -8 -2 -9 9 -5 10 3 17 2 17 -3 0 -6 9
-10 19 -10 11 0 22 -4 25 -9 17 -26 185 -57 329 -60 31 -1 68 -6 82 -11 14 -5
25 -6 25 -2 0 4 5 -1 11 -11 6 -9 14 -15 20 -12 5 4 22 -3 38 -14 15 -11 32
-17 37 -13 4 4 2 -2 -6 -12 -14 -18 -14 -19 10 -6 24 13 24 12 10 -5 -9 -11
-10 -16 -2 -11 15 9 72 -30 72 -50 0 -10 5 -12 13 -8 7 5 6 0 -3 -11 -8 -10
-10 -16 -4 -12 6 3 22 -5 34 -18 13 -14 20 -25 16 -25 -4 0 4 -21 18 -47 34
-60 45 -184 45 -537 0 -278 1 -285 51 -287 45 -1 90 7 100 17 7 7 11 316 13
887 1 632 5 880 13 885 6 4 15 18 19 32 12 39 26 54 37 38 6 -9 8 -7 6 7 -2
11 2 19 9 18 6 -2 15 7 18 18 4 13 12 18 21 15 10 -4 12 -2 8 6 -5 8 -2 9 10
5 9 -4 15 -3 12 2 -3 5 8 11 25 15 47 9 79 7 79 -5 0 -5 4 -8 9 -4 5 3 12 -4
16 -15 8 -25 35 -22 52 5 18 30 15 80 -7 120 -11 20 -16 34 -10 30 5 -3 10 -4
10 -1 0 11 -86 54 -120 61 -67 13 -72 15 -59 31 10 12 9 13 -6 8 -14 -6 -16
-4 -10 6 5 9 4 11 -3 6 -6 -4 -20 -2 -31 3 -10 6 -97 11 -195 11 -97 1 -178 6
-181 11 -4 5 -15 9 -26 9 -11 0 -39 11 -62 25 -30 17 -47 21 -57 15 -11 -7
-11 -10 -2 -10 9 0 10 -5 4 -17 -13 -22 1 -67 35 -112 15 -20 27 -39 25 -43
-1 -5 4 -8 11 -8 7 0 23 -7 35 -16 26 -18 21 -32 -35 -101 -19 -24 -29 -43
-23 -43 6 0 9 -4 5 -10 -6 -10 -49 5 -76 27 -9 7 -19 10 -23 6 -4 -4 -9 3 -13
16 -4 16 -8 19 -14 10 -6 -11 -11 -10 -26 2 -10 8 -39 26 -65 40 -27 13 -48
28 -48 32 0 5 -4 6 -8 3 -12 -7 -84 43 -77 54 3 5 0 12 -6 16 -8 4 -9 3 -5 -4
4 -7 5 -12 3 -12 -11 0 -65 32 -84 50 -12 11 -26 20 -30 20 -5 0 -15 9 -22 19
-8 11 -20 17 -27 14 -19 -7 -30 27 -13 38 9 6 10 9 2 9 -6 0 -15 -4 -18 -10
-3 -5 -11 -10 -16 -10 -6 0 -7 5 -3 12 4 6 3 9 -2 5 -5 -3 -18 1 -29 9 -10 8
-15 14 -10 14 5 0 -12 13 -38 30 -26 16 -47 32 -47 36 0 4 8 0 18 -7 15 -13
16 -12 4 3 -8 9 -20 14 -27 12 -7 -3 -18 4 -25 15 -6 12 -16 21 -23 21 -6 0
-40 29 -74 66 -35 36 -63 62 -63 57 0 -4 -7 3 -16 15 -8 12 -12 27 -8 34 4 6
3 8 -3 5 -6 -4 -18 1 -26 11 -15 16 -15 18 4 19 12 1 17 -3 13 -9 -4 -7 -2 -8
5 -4 19 12 2 26 -27 22 -21 -3 -32 2 -51 26 -13 17 -24 36 -24 44 0 7 -3 12
-6 11 -9 -3 -45 37 -49 53 -2 7 -10 25 -18 39 -8 14 -13 18 -10 8 4 -11 2 -16
-5 -11 -6 3 -8 15 -6 26 4 14 2 18 -9 14 -9 -3 -12 -2 -9 5 4 6 -1 19 -10 29
-9 10 -14 23 -10 29 3 6 1 19 -5 28 -9 15 -10 14 -4 -6 5 -21 4 -22 -9 -10 -8
8 -13 17 -10 22 2 4 -1 7 -6 7 -6 0 -11 11 -11 25 0 13 -9 39 -19 57 -11 17
-18 36 -15 40 4 5 -1 17 -10 27 -9 10 -14 25 -10 35 3 9 1 16 -6 16 -6 0 -9 4
-5 9 8 14 -16 102 -26 95 -28 -17 14 -171 86 -321 72 -147 172 -278 331 -433
215 -209 419 -352 804 -563 l66 -35 32 61 c17 34 45 77 62 95 31 34 32 52 3
52 -33 0 -82 42 -107 92 -14 29 -26 60 -26 70 0 16 4 15 35 -6 49 -34 144 -47
312 -45 l144 2 33 -32 c22 -22 42 -31 64 -31 50 0 99 -25 116 -59 18 -33 22
-131 6 -131 -5 0 -10 6 -10 13 0 8 -9 22 -19 31 -15 14 -29 16 -68 10 -96 -14
-168 -69 -212 -164 l-26 -55 2 -862 2 -863 -60 0 -59 0 0 333 c0 367 -4 401
-62 509 -87 164 -200 230 -426 249 -192 15 -276 41 -395 120 -47 31 -63 62
-29 58 35 -5 412 14 412 20 0 4 -57 13 -127 19 -71 7 -198 22 -283 34 -179 24
-185 27 -283 143 -63 74 -124 171 -113 182 3 3 56 -10 118 -30 62 -20 181 -50
263 -67 83 -16 181 -37 218 -46 38 -9 71 -13 74 -10 3 3 0 8 -8 10 -200 67
-530 204 -674 279 l-100 52 -42 85 c-59 117 -114 350 -83 350 6 0 10 -4 10 -8
0 -14 212 -169 313 -230 139 -83 521 -271 531 -261 3 2 -64 46 -148 97 -221
136 -403 271 -537 400 -226 217 -254 277 -246 516 5 159 20 227 72 329 18 38
28 64 21 58 -9 -7 -16 -7 -23 0 -8 8 -13 7 -18 -2z m321 -1048 c-3 -5 1 -12
10 -15 8 -3 12 -10 9 -16 -3 -6 1 -7 9 -4 9 3 16 1 16 -6 0 -6 5 -8 10 -5 6 3
10 -1 10 -10 0 -9 4 -14 8 -11 4 2 27 -8 50 -24 24 -16 39 -31 34 -34 -6 -3
-26 5 -46 19 -20 14 -39 25 -42 25 -14 0 -73 48 -67 54 4 4 0 4 -10 0 -11 -4
-17 -1 -17 9 0 8 6 18 13 20 18 8 19 8 13 -2z m189 -141 c4 -6 10 -8 14 -6 4
3 8 -1 8 -9 0 -12 -4 -12 -21 2 -12 10 -23 19 -25 20 -2 2 1 3 7 3 6 0 14 -5
17 -10z"/>
<path d="M1191 3884 c0 -11 3 -14 6 -6 3 7 2 16 -1 19 -3 4 -6 -2 -5 -13z"/>
<path d="M2125 3813 c-55 -7 -108 -11 -118 -9 -10 2 -14 0 -11 -6 5 -7 -2 -9
-20 -4 -16 4 -25 3 -22 -2 3 -5 -4 -10 -17 -11 -49 -3 -72 -6 -77 -12 -3 -3
-27 -13 -55 -23 -27 -10 -78 -31 -113 -47 -34 -16 -63 -28 -65 -26 -2 1 -15
-6 -30 -16 -15 -10 -33 -15 -39 -11 -7 5 -8 3 -3 -6 6 -10 4 -12 -9 -7 -9 4
-15 3 -12 -2 7 -10 -67 -61 -89 -61 -9 0 -13 -5 -9 -11 4 -8 -1 -9 -17 -4 -17
4 -20 3 -10 -3 11 -8 9 -12 -10 -23 -13 -7 -28 -12 -34 -10 -5 1 -7 -1 -3 -4
4 -4 3 -16 -3 -26 -5 -11 -6 -19 -2 -19 13 0 32 -49 22 -54 -5 -2 -4 -3 3 -2
7 2 21 -3 30 -11 11 -10 24 -12 40 -7 13 4 26 7 31 6 4 -1 7 2 7 8 0 5 5 10
11 10 6 0 8 -7 5 -16 -3 -9 -2 -12 5 -9 6 4 8 13 5 20 -3 8 4 17 15 20 10 4
19 11 19 16 0 5 8 9 18 9 13 0 14 -2 3 -9 -8 -5 -9 -11 -3 -15 13 -8 23 19 11
31 -5 5 -1 9 11 10 10 1 32 12 49 24 16 12 36 19 45 16 11 -4 13 -1 9 11 -6
15 -5 15 10 3 11 -8 17 -9 17 -2 0 16 80 53 102 48 11 -3 17 -3 14 0 -3 4 17
15 46 25 59 20 61 21 55 11 -3 -5 5 -8 18 -8 12 0 21 5 18 11 -4 11 84 26 162
29 17 1 57 5 90 9 40 5 95 2 164 -8 58 -9 122 -16 143 -16 22 0 37 -4 34 -9
-4 -5 4 -7 16 -3 21 5 22 4 8 -13 -14 -17 -14 -17 7 -5 17 11 27 11 45 3 13
-6 40 -14 61 -18 21 -3 35 -10 32 -16 -4 -5 5 -9 19 -9 14 0 26 -5 26 -11 0
-6 7 -9 15 -5 8 3 15 1 15 -5 0 -6 7 -8 16 -5 8 3 12 2 9 -4 -3 -6 3 -10 15
-10 11 0 33 -12 47 -27 17 -18 24 -22 20 -10 -6 16 -5 16 18 1 29 -19 32 -26
8 -18 -17 5 -17 5 0 -6 9 -6 22 -8 27 -5 6 3 10 1 10 -4 0 -6 9 -11 20 -11 11
0 20 -4 20 -10 0 -5 7 -10 15 -10 8 0 15 -5 15 -11 0 -5 5 -7 10 -4 9 6 14 -7
11 -27 0 -4 5 -5 13 -2 8 3 17 0 22 -7 5 -8 3 -10 -6 -4 -9 5 -11 4 -6 -4 4
-6 10 -10 14 -7 10 5 65 -28 61 -36 -2 -4 7 -15 21 -25 14 -10 25 -15 26 -13
0 3 19 -15 41 -40 23 -24 40 -47 37 -51 -2 -4 4 -6 14 -5 10 0 17 -6 16 -16
-1 -10 4 -14 12 -11 10 4 12 0 7 -13 -4 -10 -2 -15 4 -11 5 3 17 -3 26 -14 9
-10 14 -19 11 -19 -4 0 -1 -6 5 -14 9 -10 9 -20 2 -34 -7 -14 -7 -19 4 -19 7
0 11 7 8 16 -13 40 65 -60 100 -128 22 -42 44 -78 48 -79 5 -2 7 -8 4 -13 -4
-5 5 -24 19 -42 14 -18 27 -42 29 -53 2 -10 9 -30 17 -44 13 -24 15 -32 23
-79 2 -10 11 -30 20 -44 9 -15 20 -43 23 -64 3 -21 10 -46 15 -56 6 -9 7 -22
4 -27 -3 -5 -1 -11 4 -14 5 -3 8 -19 7 -35 -1 -17 2 -28 6 -25 4 3 8 -2 8 -10
0 -9 -6 -16 -12 -16 -9 0 -9 -3 1 -9 8 -5 14 -24 14 -43 0 -18 3 -37 7 -43 5
-5 11 -40 15 -78 10 -91 24 -95 19 -4 -26 437 -236 883 -548 1159 -113 101
-209 164 -351 233 -140 68 -235 99 -394 126 -105 18 -150 20 -271 16 -263 -11
-480 -80 -704 -224 l-69 -45 -26 33 c-14 19 -26 38 -26 43 0 15 119 91 237
151 128 66 280 118 407 139 122 21 350 21 467 1 401 -69 766 -309 997 -656
177 -266 277 -564 294 -873 7 -144 21 -204 23 -106 3 133 2 180 -6 232 -4 29
-8 64 -9 78 -1 14 -4 30 -7 36 -4 5 -9 29 -13 54 -4 24 -11 52 -16 62 -5 10
-7 18 -4 18 3 0 -1 10 -9 22 -9 12 -16 33 -16 46 0 12 -7 34 -16 48 -9 13 -14
27 -11 30 3 4 -3 23 -14 43 -11 20 -24 53 -29 73 -6 20 -16 43 -23 50 -11 11
-39 65 -41 78 -1 3 -5 11 -10 19 -7 10 -6 12 4 6 9 -5 11 -4 6 3 -4 7 -14 12
-22 12 -8 0 -14 7 -14 15 0 8 -3 15 -7 15 -11 0 -47 63 -44 75 11 39 10 47 -4
35 -8 -7 -12 -16 -9 -21 3 -5 3 -9 0 -9 -3 0 -20 25 -38 55 -18 30 -38 55 -44
55 -6 0 -30 27 -53 60 -23 33 -45 60 -48 60 -3 0 1 -8 8 -17 7 -10 -7 2 -32
27 -24 25 -69 65 -99 90 -30 25 -57 48 -58 53 -2 4 -8 5 -13 1 -5 -3 -9 0 -9
6 0 5 -16 18 -35 27 -19 9 -35 24 -36 32 0 10 -3 11 -5 4 -3 -7 -12 -9 -20 -6
-10 4 -12 9 -4 18 8 9 4 11 -17 8 -23 -4 -25 -2 -13 7 13 10 12 11 -4 6 -11
-4 -26 0 -37 10 -10 9 -23 13 -30 8 -8 -4 -10 -3 -5 4 5 8 0 12 -13 12 -12 0
-21 5 -21 11 0 6 -7 9 -15 5 -8 -3 -15 -1 -15 5 0 6 -5 7 -11 3 -6 -3 -14 -2
-18 3 -8 11 -120 51 -181 64 -25 6 -53 14 -62 19 -10 5 -25 7 -34 3 -13 -5
-15 -3 -9 7 5 7 4 11 -1 8 -5 -3 -52 -2 -104 3 -156 15 -190 16 -295 2z"/>
<path d="M1898 3793 c7 -3 16 -2 19 1 4 3 -2 6 -13 5 -11 0 -14 -3 -6 -6z"/>
<path d="M2855 3720 c-3 -5 -1 -10 4 -10 6 0 11 5 11 10 0 6 -2 10 -4 10 -3 0
-8 -4 -11 -10z"/>
<path d="M2795 3621 c-3 -5 -2 -12 3 -15 5 -3 9 1 9 9 0 17 -3 19 -12 6z"/>
<path d="M3060 3486 c0 -2 7 -7 16 -10 8 -3 12 -2 9 4 -6 10 -25 14 -25 6z"/>
<path d="M3140 3436 c0 -2 8 -10 18 -17 15 -13 16 -12 3 4 -13 16 -21 21 -21
13z"/>
<path d="M3300 3416 c0 -2 7 -7 16 -10 8 -3 12 -2 9 4 -6 10 -25 14 -25 6z"/>
<path d="M3183 3395 c0 -8 4 -12 9 -9 5 3 6 10 3 15 -9 13 -12 11 -12 -6z"/>
<path d="M3386 3308 c10 -14 21 -24 23 -22 3 3 -6 15 -18 27 l-24 22 19 -27z"/>
<path d="M3120 3293 c0 -1 8 -7 18 -12 14 -7 19 -6 19 4 0 7 -9 13 -19 12 -10
-1 -18 -2 -18 -4z"/>
<path d="M3500 3241 c0 -6 4 -13 10 -16 6 -3 7 1 4 9 -7 18 -14 21 -14 7z"/>
<path d="M1397 3219 c12 -12 24 -21 27 -18 2 2 -8 13 -22 23 l-27 19 22 -24z"/>
<path d="M1583 3169 c-2 -23 3 -25 10 -4 4 8 3 16 -1 19 -4 3 -9 -4 -9 -15z"/>
<path d="M1446 3123 c-6 -14 -5 -15 5 -6 7 7 10 15 7 18 -3 3 -9 -2 -12 -12z"/>
<path d="M3310 3136 c0 -2 8 -10 18 -17 15 -13 16 -12 3 4 -13 16 -21 21 -21
13z"/>
<path d="M1107 3099 c7 -7 15 -10 18 -7 3 3 -2 9 -12 12 -14 6 -15 5 -6 -5z"/>
<path d="M1666 3097 c5 -14 2 -16 -12 -10 -17 6 -18 5 -5 -11 13 -16 15 -16
24 -1 6 11 5 21 -3 28 -8 9 -10 8 -4 -6z"/>
<path d="M3460 3096 c0 -2 8 -10 18 -17 15 -13 16 -12 3 4 -13 16 -21 21 -21
13z"/>
<path d="M895 3019 c-4 -6 -5 -12 -2 -15 2 -3 7 2 10 11 7 17 1 20 -8 4z"/>
<path d="M1336 2998 c3 -5 10 -6 15 -3 13 9 11 12 -6 12 -8 0 -12 -4 -9 -9z"/>
<path d="M1219 2973 c-13 -17 -13 -17 6 -3 11 8 22 16 24 17 2 2 0 3 -6 3 -6
0 -17 -8 -24 -17z"/>
<path d="M1905 2941 c-3 -5 -2 -12 3 -15 5 -3 9 1 9 9 0 17 -3 19 -12 6z"/>
<path d="M1282 2903 c20 -25 46 -34 54 -21 4 7 4 10 -1 6 -10 -9 -47 10 -41
21 3 4 -1 8 -9 8 -11 0 -12 -3 -3 -14z"/>
<path d="M1287 2799 c7 -7 15 -10 18 -7 3 3 -2 9 -12 12 -14 6 -15 5 -6 -5z"/>
<path d="M2404 2755 c0 -13 3 -22 7 -19 8 4 6 30 -2 38 -3 3 -5 -5 -5 -19z"/>
<path d="M2419 2719 l-24 -20 28 17 c15 9 27 18 27 20 0 8 -8 4 -31 -17z"/>
<path d="M1740 2686 c7 -7 13 -7 20 0 6 6 3 10 -10 10 -13 0 -16 -4 -10 -10z"/>
<path d="M2806 2618 c3 -5 10 -6 15 -3 13 9 11 12 -6 12 -8 0 -12 -4 -9 -9z"/>
<path d="M2360 2606 c0 -2 9 -6 20 -9 11 -3 18 -1 14 4 -5 9 -34 13 -34 5z"/>
<path d="M2765 2539 c-4 -6 -5 -12 -2 -15 2 -3 7 2 10 11 7 17 1 20 -8 4z"/>
<path d="M2846 2517 c3 -10 9 -15 12 -12 3 3 0 11 -7 18 -10 9 -11 8 -5 -6z"/>
<path d="M830 2429 c0 -5 5 -7 10 -4 6 3 10 8 10 11 0 2 -4 4 -10 4 -5 0 -10
-5 -10 -11z"/>
<path d="M1993 2295 c0 -8 4 -12 9 -9 5 3 6 10 3 15 -9 13 -12 11 -12 -6z"/>
<path d="M1570 2146 c0 -2 8 -10 18 -17 15 -13 16 -12 3 4 -13 16 -21 21 -21
13z"/>
<path d="M1458 2109 c12 -14 20 -28 18 -30 -3 -3 4 -5 14 -5 11 0 16 3 12 6
-4 3 -20 16 -37 30 l-30 25 23 -26z"/>
<path d="M2514 1742 c3 -5 0 -13 -6 -15 -9 -4 -10 -6 -1 -6 17 -1 25 16 12 25
-7 4 -9 3 -5 -4z"/>
<path d="M2530 1701 c0 -6 4 -13 10 -16 6 -3 7 1 4 9 -7 18 -14 21 -14 7z"/>
</g>
</svg>
