<?xml version="1.0" standalone="no"?>
<!DOCTYPE svg PUBLIC "-//W3C//DTD SVG 20010904//EN"
 "http://www.w3.org/TR/2001/REC-SVG-20010904/DTD/svg10.dtd">
<svg version="1.0" xmlns="http://www.w3.org/2000/svg"
 width="433.000000pt" height="439.000000pt" viewBox="0 0 433.000000 439.000000"
 preserveAspectRatio="xMidYMid meet">
<g transform="translate(0.000000,439.000000) scale(0.100000,-0.100000)"
fill="#000000" stroke="none">
<path d="M0 2195 l0 -2195 2165 0 2165 0 0 2195 0 2195 -2165 0 -2165 0 0
-2195z m1126 1706 c7 6 -3 -20 -21 -58 -52 -102 -67 -170 -72 -329 -8 -239 20
-299 246 -516 134 -129 316 -264 537 -400 84 -51 151 -95 148 -97 -10 -10
-392 178 -531 261 -101 61 -313 216 -313 230 0 4 -4 8 -10 8 -31 0 24 -233 83
-350 l42 -85 100 -52 c144 -75 474 -212 674 -279 8 -2 11 -7 8 -10 -3 -3 -36
1 -74 10 -37 9 -135 30 -218 46 -82 17 -201 47 -263 67 -62 20 -115 33 -118
30 -11 -11 50 -108 113 -182 98 -116 104 -119 283 -143 85 -12 212 -27 283
-34 70 -6 127 -15 127 -19 0 -6 -377 -25 -412 -20 -34 4 -18 -27 29 -58 119
-79 203 -105 395 -120 226 -19 339 -85 426 -249 58 -108 62 -142 62 -509 l0
-333 59 0 60 0 -2 863 -2 862 26 55 c44 95 116 150 212 164 39 6 53 4 68 -10
10 -9 19 -23 19 -31 0 -7 5 -13 10 -13 16 0 12 98 -6 131 -17 34 -66 59 -116
59 -22 0 -42 9 -64 31 l-33 32 -144 -2 c-168 -2 -263 11 -312 45 -31 21 -35
22 -35 6 0 -10 12 -41 26 -70 25 -50 74 -92 107 -92 29 0 28 -18 -3 -52 -17
-18 -45 -61 -62 -95 l-32 -61 -66 35 c-385 211 -589 354 -804 563 -159 155
-259 286 -331 433 -72 150 -114 304 -86 321 10 7 34 -81 26 -95 -4 -5 -1 -9 5
-9 7 0 9 -7 6 -16 -4 -10 1 -25 10 -35 9 -10 14 -22 10 -27 -3 -4 4 -23 15
-40 10 -18 19 -44 19 -57 0 -14 5 -25 11 -25 5 0 8 -3 6 -7 -3 -5 2 -14 10
-22 13 -12 14 -11 9 10 -6 20 -5 21 4 6 6 -9 8 -22 5 -28 -4 -6 1 -19 10 -29
9 -10 14 -23 10 -29 -3 -7 0 -8 9 -5 11 4 13 0 9 -14 -2 -11 0 -23 6 -26 7 -5
9 0 5 11 -3 10 2 6 10 -8 8 -14 16 -32 18 -39 4 -16 40 -56 49 -53 3 1 6 -4 6
-11 0 -8 11 -27 24 -44 19 -24 30 -29 51 -26 29 4 46 -10 27 -22 -7 -4 -9 -3
-5 4 4 6 -1 10 -13 9 -19 -1 -19 -3 -4 -19 8 -10 20 -15 26 -11 6 3 7 1 3 -5
-4 -7 0 -22 8 -34 9 -12 16 -19 16 -15 0 5 28 -21 63 -57 34 -37 68 -66 74
-66 7 0 17 -9 23 -21 7 -11 18 -18 25 -15 7 2 19 -3 27 -12 12 -15 11 -16 -4
-3 -10 7 -18 11 -18 7 0 -4 21 -20 47 -36 26 -17 43 -30 38 -30 -5 0 0 -6 10
-14 11 -8 24 -12 29 -9 5 4 6 1 2 -5 -4 -7 -3 -12 3 -12 5 0 13 5 16 10 3 6
12 10 18 10 8 0 7 -3 -2 -9 -17 -11 -6 -45 13 -38 7 3 19 -3 27 -14 7 -10 17
-19 22 -19 4 0 18 -9 30 -20 19 -18 73 -50 84 -50 2 0 1 5 -3 12 -4 7 -3 8 5
4 6 -4 9 -11 6 -16 -7 -11 65 -61 77 -54 4 3 8 2 8 -3 0 -4 21 -19 48 -32 26
-14 55 -32 65 -40 15 -12 20 -13 26 -2 6 9 10 6 14 -10 4 -13 9 -20 13 -16 4
4 14 1 23 -6 27 -22 70 -37 76 -27 4 6 1 10 -5 10 -6 0 4 19 23 43 56 69 61
83 35 101 -12 9 -28 16 -35 16 -7 0 -12 3 -11 8 2 4 -10 23 -25 43 -34 45 -48
90 -35 112 6 12 5 17 -4 17 -9 0 -9 3 2 10 10 6 27 2 57 -15 23 -14 51 -25 62
-25 11 0 22 -4 26 -9 3 -5 84 -10 181 -11 98 0 185 -5 195 -11 11 -5 25 -7 31
-3 7 5 8 3 3 -6 -6 -10 -4 -12 10 -6 15 5 16 4 6 -8 -13 -16 -8 -18 59 -31 34
-7 120 -50 120 -61 0 -3 -5 -2 -10 1 -6 4 -1 -10 10 -30 22 -40 25 -90 7 -120
-17 -27 -44 -30 -52 -5 -4 11 -11 18 -16 15 -5 -4 -9 -1 -9 4 0 12 -32 14 -79
5 -17 -4 -28 -10 -25 -15 3 -5 -3 -6 -12 -2 -12 4 -15 3 -10 -5 4 -8 2 -10 -8
-6 -9 3 -17 -2 -21 -15 -3 -11 -12 -20 -18 -18 -7 1 -11 -7 -9 -18 2 -14 0
-16 -6 -7 -11 16 -25 1 -37 -38 -4 -14 -13 -28 -19 -32 -8 -5 -12 -253 -13
-885 -2 -571 -6 -880 -13 -887 -10 -10 -55 -18 -100 -17 -50 2 -51 9 -51 287
0 353 -11 477 -45 537 -14 26 -22 47 -18 47 4 0 -3 11 -16 25 -12 13 -28 21
-34 18 -6 -4 -4 2 4 12 9 11 10 16 3 11 -8 -4 -13 -2 -13 8 0 20 -57 59 -72
50 -8 -5 -7 0 2 11 14 17 14 18 -10 5 -24 -13 -24 -12 -10 6 8 10 10 16 6 12
-5 -4 -22 2 -37 13 -16 11 -33 18 -38 14 -6 -3 -14 3 -20 12 -6 10 -11 15 -11
11 0 -4 -11 -3 -25 2 -14 5 -51 10 -82 11 -144 3 -312 34 -329 60 -3 5 -14 9
-25 9 -10 0 -19 4 -19 10 0 5 -7 6 -17 3 -11 -4 -14 -3 -9 5 6 11 -5 17 -26
13 -5 0 -8 4 -8 11 0 6 -3 8 -7 5 -3 -4 -16 4 -29 18 -12 13 -24 21 -27 17 -2
-4 -2 -2 -1 5 2 7 -3 19 -11 27 -22 22 14 49 67 49 24 -1 50 4 58 9 12 7 11 8
-4 3 -10 -3 -33 -1 -50 4 -17 5 -53 12 -81 15 -72 7 -117 17 -141 33 -11 7
-22 12 -25 11 -2 -2 -3 -1 -2 1 3 5 -29 36 -38 36 -4 0 -11 4 -16 9 -5 5 -2 6
6 1 9 -5 12 -4 7 3 -4 7 -14 12 -23 12 -9 0 -13 3 -10 7 11 11 -14 32 -31 26
-14 -4 -15 -3 -2 5 12 9 11 14 -8 30 -12 10 -18 22 -14 26 4 5 -2 6 -13 4 -12
-2 -19 2 -17 10 1 7 -9 35 -24 63 -23 47 -24 52 -10 75 14 20 20 22 41 14 14
-5 25 -7 25 -4 0 4 7 1 15 -6 8 -7 15 -9 15 -4 0 5 4 2 9 -5 6 -9 26 -15 49
-15 22 -1 38 -4 36 -7 -6 -10 16 -16 82 -24 32 -4 62 -13 66 -19 5 -7 8 -4 8
7 0 15 -13 21 -47 20 -7 -1 -10 4 -7 9 4 6 -2 8 -15 3 -14 -4 -23 -2 -27 8 -3
8 -25 20 -50 26 -24 6 -44 16 -44 22 0 6 -7 8 -16 5 -10 -4 -13 -2 -8 6 5 8
-2 9 -22 4 -21 -5 -25 -4 -14 4 13 8 13 10 -2 10 -10 0 -18 4 -18 10 0 5 -7 7
-15 4 -8 -4 -15 -2 -15 3 0 9 -39 30 -97 55 -18 7 -33 16 -33 20 0 4 -7 5 -15
2 -9 -4 -15 0 -15 9 0 8 -7 17 -15 21 -8 3 -15 12 -15 19 0 8 -8 25 -18 38
-20 27 -48 105 -58 161 -4 23 -10 35 -17 31 -6 -3 -7 -1 -3 6 4 6 3 26 -3 44
-6 18 -12 51 -13 75 -1 46 -8 51 -29 25 -10 -11 -10 -14 -1 -9 6 4 12 3 12 -1
0 -5 -10 -13 -22 -18 -12 -6 -24 -16 -26 -24 -3 -9 0 -11 7 -6 9 5 9 2 0 -13
-7 -12 -16 -19 -20 -16 -7 4 -30 -51 -26 -62 1 -3 -6 -10 -15 -15 -10 -6 -18
-15 -18 -22 0 -7 4 -6 10 3 6 9 10 10 10 3 0 -7 -6 -16 -14 -20 -15 -9 -40
-53 -30 -53 3 0 1 -6 -5 -14 -6 -7 -9 -22 -5 -32 5 -15 4 -16 -4 -5 -8 11 -13
5 -22 -28 -6 -23 -8 -46 -5 -51 3 -6 2 -10 -3 -10 -11 0 -35 -50 -27 -58 2 -3
1 -10 -4 -16 -9 -11 -46 -169 -55 -237 -22 -156 -37 -195 -31 -84 6 124 29
237 80 390 50 154 107 275 185 393 l57 86 -19 33 c-11 18 -23 33 -26 33 -4 0
-28 -37 -54 -83 -161 -281 -220 -474 -238 -777 -6 -90 -12 -166 -14 -168 -9
-9 -18 156 -12 217 4 36 9 91 12 121 3 30 11 78 19 107 8 28 15 61 15 72 0 12
5 21 11 21 5 0 7 5 4 10 -4 6 -3 16 2 23 5 7 16 32 23 57 7 25 17 50 20 55 4
6 13 26 20 45 24 64 80 174 92 181 9 6 9 11 -2 23 -11 14 -11 16 2 11 11 -4
21 7 36 37 28 61 57 86 83 70 21 -14 25 -3 7 18 -7 8 -3 6 10 -5 15 -12 19
-21 11 -26 -9 -5 -8 -12 3 -28 8 -11 18 -18 23 -13 5 4 5 1 1 -5 -23 -40 0
-84 24 -45 10 15 10 15 8 -2 -2 -10 3 -21 11 -24 9 -3 11 0 6 8 -5 9 -4 11 4
6 9 -6 9 -11 -1 -24 -11 -13 -10 -15 4 -9 11 4 19 0 23 -11 7 -21 129 -107
149 -106 8 1 17 -5 20 -13 4 -9 1 -12 -7 -7 -9 5 -8 3 1 -7 11 -12 14 -12 22
1 5 8 6 18 3 24 -4 5 0 6 8 2 8 -4 3 2 -11 13 -14 11 -31 21 -39 21 -8 0 -11
6 -7 16 3 8 2 12 -3 9 -5 -3 -12 -1 -16 5 -4 6 -11 8 -16 4 -5 -3 -8 0 -7 8 2
7 -3 12 -10 10 -8 -1 -11 2 -7 8 9 14 -8 13 -25 -2 -8 -7 -7 -4 3 8 15 18 15
23 4 32 -8 7 -16 9 -19 6 -3 -3 -9 0 -14 7 -5 8 -3 10 7 4 8 -4 5 1 -6 12 -11
11 -24 18 -30 15 -5 -3 -7 -2 -3 3 11 11 -12 36 -26 28 -6 -3 -8 -3 -4 2 4 4
-4 16 -17 27 -14 10 -24 22 -23 26 3 11 -23 54 -29 48 -4 -3 2 -16 13 -28 l19
-23 -23 19 c-12 11 -21 26 -20 35 2 9 -4 16 -12 16 -8 1 -14 6 -12 13 1 7 -5
29 -15 50 -9 20 -18 46 -19 57 -5 38 -17 190 -16 205 2 45 11 117 15 130 3 8
15 52 26 98 21 82 45 132 63 132 5 0 6 5 3 10 -4 6 -11 7 -17 4 -7 -5 -8 -2
-3 5 5 9 10 10 18 2 7 -7 14 -7 23 0z m71 -23 c-3 -8 -6 -5 -6 6 -1 11 2 17 5
13 3 -3 4 -12 1 -19z m1223 -67 c52 -5 99 -6 104 -3 5 3 6 -1 1 -8 -6 -10 -4
-12 9 -7 9 4 24 2 34 -3 9 -5 37 -13 62 -19 61 -13 173 -53 181 -64 4 -5 12
-6 18 -3 6 4 11 3 11 -3 0 -6 7 -8 15 -5 8 4 15 1 15 -5 0 -6 9 -11 21 -11 13
0 18 -4 13 -12 -5 -7 -3 -8 5 -4 7 5 20 1 30 -8 11 -10 26 -14 37 -10 16 5 17
4 4 -6 -12 -9 -10 -11 13 -7 21 3 25 1 17 -8 -8 -9 -6 -14 4 -18 8 -3 17 -1
20 6 2 7 5 6 5 -4 1 -8 17 -23 36 -32 19 -9 35 -22 35 -27 0 -6 4 -9 9 -6 5 4
11 3 13 -1 1 -5 28 -28 58 -53 30 -25 75 -65 99 -90 25 -25 39 -37 32 -27 -7
9 -11 17 -8 17 3 0 25 -27 48 -60 23 -33 47 -60 53 -60 6 0 26 -25 44 -55 18
-30 35 -55 38 -55 3 0 3 4 0 9 -3 5 1 14 9 21 14 12 15 4 4 -35 -3 -12 33 -75
44 -75 4 0 7 -7 7 -15 0 -8 6 -15 14 -15 8 0 18 -5 22 -12 5 -7 3 -8 -6 -3
-10 6 -11 4 -4 -6 5 -8 9 -16 10 -19 2 -13 30 -67 41 -78 7 -7 17 -30 23 -50
5 -20 18 -53 29 -73 11 -20 17 -39 14 -43 -3 -3 2 -17 11 -30 9 -14 16 -36 16
-48 0 -13 7 -34 16 -46 8 -12 12 -22 9 -22 -3 0 -1 -8 4 -18 5 -10 12 -38 16
-62 4 -25 9 -49 13 -54 3 -6 6 -22 7 -36 1 -14 5 -49 9 -78 8 -52 9 -99 6
-232 -2 -98 -16 -38 -23 106 -30 555 -329 1066 -783 1339 -235 141 -465 205
-739 205 -240 0 -431 -46 -643 -155 -118 -60 -237 -136 -237 -151 0 -5 12 -24
26 -43 l26 -33 69 45 c224 144 441 213 704 224 240 9 445 -35 665 -142 142
-69 238 -132 351 -233 312 -276 522 -722 548 -1159 5 -91 -9 -87 -19 4 -4 38
-10 73 -15 78 -4 6 -7 25 -7 43 0 19 -6 38 -14 43 -10 6 -10 9 -1 9 6 0 12 7
12 16 0 8 -4 13 -8 10 -4 -3 -7 8 -6 25 1 16 -2 32 -7 35 -5 3 -7 9 -4 14 3 5
2 18 -4 27 -5 10 -12 35 -15 56 -3 21 -14 49 -23 64 -9 14 -18 34 -20 44 -8
47 -10 55 -23 79 -8 14 -15 34 -17 44 -2 11 -15 35 -29 53 -14 18 -23 37 -19
42 3 5 1 11 -4 13 -4 1 -26 37 -48 79 -35 68 -113 168 -100 128 3 -9 -1 -16
-8 -16 -11 0 -11 5 -4 19 7 14 7 24 -2 34 -6 8 -9 14 -5 14 3 0 -2 9 -11 19
-9 11 -21 17 -26 14 -6 -4 -8 1 -4 11 5 13 3 17 -7 13 -8 -3 -13 1 -12 11 1
10 -6 16 -16 16 -10 -1 -16 1 -14 5 3 4 -14 27 -37 51 -22 25 -41 43 -41 40
-1 -2 -12 3 -26 13 -14 10 -23 21 -21 25 4 8 -51 41 -61 36 -4 -3 -10 1 -14 7
-5 8 -3 9 6 4 9 -6 11 -4 6 4 -5 7 -14 10 -22 7 -8 -3 -13 -2 -13 2 3 20 -2
33 -11 27 -5 -3 -10 -1 -10 4 0 6 -7 11 -15 11 -8 0 -15 5 -15 10 0 6 -9 10
-20 10 -11 0 -20 5 -20 11 0 5 -4 7 -10 4 -5 -3 -18 -1 -27 5 -17 11 -17 11 0
6 24 -8 21 -1 -8 18 -23 15 -24 15 -18 -1 4 -12 -3 -8 -20 10 -14 15 -36 27
-47 27 -12 0 -18 4 -15 10 3 6 -1 7 -9 4 -9 -3 -16 -1 -16 5 0 6 -7 8 -15 5
-8 -4 -15 -1 -15 5 0 6 -12 11 -26 11 -14 0 -23 4 -19 9 3 6 -11 13 -32 16
-21 4 -48 12 -61 18 -18 8 -28 8 -45 -3 -21 -12 -21 -12 -7 5 14 17 13 18 -8
13 -12 -4 -20 -2 -16 3 3 5 -12 9 -34 9 -21 0 -85 7 -143 16 -69 10 -124 13
-164 8 -33 -4 -73 -8 -90 -9 -78 -3 -166 -18 -162 -29 3 -6 -6 -11 -18 -11
-13 0 -21 3 -18 8 6 10 4 9 -55 -11 -29 -10 -49 -21 -46 -25 3 -3 -3 -3 -14 0
-22 5 -102 -32 -102 -48 0 -7 -6 -6 -17 2 -15 12 -16 12 -10 -3 4 -12 2 -15
-9 -11 -9 3 -29 -4 -45 -16 -17 -12 -39 -23 -49 -24 -12 -1 -16 -5 -11 -10 12
-12 2 -39 -11 -31 -6 4 -5 10 3 15 11 7 10 9 -3 9 -10 0 -18 -4 -18 -9 0 -5
-9 -12 -19 -16 -11 -3 -18 -12 -15 -20 3 -7 1 -16 -5 -20 -7 -3 -8 0 -5 9 3 9
1 16 -5 16 -6 0 -11 -5 -11 -10 0 -6 -3 -9 -7 -8 -5 1 -18 -2 -31 -6 -16 -5
-29 -3 -40 7 -9 8 -23 13 -30 11 -7 -1 -8 0 -3 2 10 5 -9 54 -22 54 -4 0 -3 8
2 19 6 10 7 22 3 26 -4 3 -2 5 3 4 6 -2 21 3 34 10 19 11 21 15 10 23 -10 6
-7 7 10 3 16 -5 21 -4 17 4 -4 6 0 11 9 11 22 0 96 51 89 61 -3 5 3 6 12 2 13
-5 15 -3 9 7 -5 9 -4 11 3 6 6 -4 24 1 39 11 15 10 28 17 30 16 2 -2 31 10 65
26 35 16 86 37 113 47 28 10 52 20 55 23 5 6 28 9 77 12 13 1 20 6 17 11 -3 5
6 6 22 2 18 -5 25 -3 20 4 -3 6 1 8 11 6 10 -2 63 2 118 9 105 14 139 13 295
-2z m-503 -17 c-3 -3 -12 -4 -19 -1 -8 3 -5 6 6 6 11 1 17 -2 13 -5z m953 -74
c0 -5 -5 -10 -11 -10 -5 0 -7 5 -4 10 3 6 8 10 11 10 2 0 4 -4 4 -10z m-63
-105 c0 -8 -4 -12 -9 -9 -5 3 -6 10 -3 15 9 13 12 11 12 -6z m278 -135 c3 -6
-1 -7 -9 -4 -18 7 -21 14 -7 14 6 0 13 -4 16 -10z m76 -57 c13 -16 12 -17 -3
-4 -17 13 -22 21 -14 21 2 0 10 -8 17 -17z m164 -13 c3 -6 -1 -7 -9 -4 -18 7
-21 14 -7 14 6 0 13 -4 16 -10z m-130 -9 c3 -5 2 -12 -3 -15 -5 -3 -9 1 -9 9
0 17 3 19 12 6z m214 -115 c-2 -2 -13 8 -23 22 l-19 27 24 -22 c12 -12 21 -24
18 -27z m-252 -1 c0 -10 -5 -11 -19 -4 -10 5 -18 11 -18 12 0 2 8 3 18 4 10 1
19 -5 19 -12z m357 -51 c3 -8 2 -12 -4 -9 -6 3 -10 10 -10 16 0 14 7 11 14 -7z
m-2090 -33 c-3 -3 -15 6 -27 18 l-22 24 27 -19 c14 -10 24 -21 22 -23z m169
-36 c-7 -21 -12 -19 -10 4 0 11 5 18 9 15 4 -3 5 -11 1 -19z m-142 -48 c-10
-9 -11 -8 -5 6 3 10 9 15 12 12 3 -3 0 -11 -7 -18z m1880 6 c13 -16 12 -17 -3
-4 -17 13 -22 21 -14 21 2 0 10 -8 17 -17z m-2206 -31 c-3 -3 -11 0 -18 7 -9
10 -8 11 6 5 10 -3 15 -9 12 -12z m548 -17 c-9 -15 -11 -15 -24 1 -13 16 -12
17 5 11 14 -6 17 -4 12 10 -6 14 -4 15 4 6 8 -7 9 -17 3 -28z m1808 8 c13 -16
12 -17 -3 -4 -17 13 -22 21 -14 21 2 0 10 -8 17 -17z m-2578 -68 c-3 -9 -8
-14 -10 -11 -3 3 -2 9 2 15 9 16 15 13 8 -4z m457 -11 c0 -8 -19 -13 -24 -6
-3 5 1 9 9 9 8 0 15 -2 15 -3z m-111 -17 c-2 -1 -13 -9 -24 -17 -19 -14 -19
-14 -6 3 7 9 18 17 24 17 6 0 8 -1 6 -3z m668 -52 c0 -8 -4 -12 -9 -9 -5 3 -6
10 -3 15 9 13 12 11 12 -6z m-623 -26 c-6 -11 31 -30 41 -21 5 4 5 1 1 -6 -8
-13 -34 -4 -54 21 -9 11 -8 14 3 14 8 0 12 -4 9 -8z m11 -117 c-3 -3 -11 0
-18 7 -9 10 -8 11 6 5 10 -3 15 -9 12 -12z m1111 -37 c1 -8 -1 -17 -5 -19 -4
-3 -7 6 -7 19 0 25 8 25 12 0z m34 -19 c0 -2 -12 -11 -27 -20 l-28 -17 24 20
c23 21 31 25 31 17z m-690 -50 c-7 -7 -13 -7 -20 0 -6 6 -3 10 10 10 13 0 16
-4 10 -10z m1070 -62 c0 -8 -19 -13 -24 -6 -3 5 1 9 9 9 8 0 15 -2 15 -3z
m-436 -23 c4 -5 -3 -7 -14 -4 -23 6 -26 13 -6 13 8 0 17 -4 20 -9z m379 -66
c-3 -9 -8 -14 -10 -11 -3 3 -2 9 2 15 9 16 15 13 8 -4z m85 -30 c-3 -3 -9 2
-12 12 -6 14 -5 15 5 6 7 -7 10 -15 7 -18z m-2008 -69 c0 -3 -4 -8 -10 -11 -5
-3 -10 -1 -10 4 0 6 5 11 10 11 6 0 10 -2 10 -4z m1155 -135 c3 -5 2 -12 -3
-15 -5 -3 -9 1 -9 9 0 17 3 19 12 6z m-414 -168 c13 -16 12 -17 -3 -4 -10 7
-18 15 -18 17 0 8 8 3 21 -13z m-89 -53 c4 -3 -1 -6 -12 -6 -10 0 -17 2 -14 5
2 2 -6 16 -18 30 l-23 26 30 -25 c17 -14 33 -27 37 -30z m1023 -351 c-4 -5
-12 -9 -18 -8 -9 0 -8 2 1 6 6 2 9 10 6 15 -4 7 -2 8 5 4 6 -4 9 -12 6 -17z
m19 -35 c3 -8 2 -12 -4 -9 -6 3 -10 10 -10 16 0 14 7 11 14 -7z"/>
<path d="M1393 2853 c-7 -2 -13 -12 -13 -20 0 -10 6 -13 17 -9 10 4 14 4 10 0
-6 -6 53 -54 67 -54 3 0 22 -11 42 -25 20 -14 40 -22 46 -19 5 3 -10 18 -34
34 -23 16 -46 26 -50 24 -4 -3 -8 2 -8 11 0 9 -4 13 -10 10 -5 -3 -10 -1 -10
5 0 7 -7 9 -16 6 -8 -3 -12 -2 -9 4 3 6 -1 13 -9 16 -9 3 -13 10 -10 15 6 10
5 10 -13 2z"/>
<path d="M1571 2717 c2 -1 13 -10 25 -20 17 -14 21 -14 21 -2 0 8 -4 12 -8 9
-4 -2 -10 0 -14 6 -3 5 -11 10 -17 10 -6 0 -9 -1 -7 -3z"/>
</g>
</svg>
