<?xml version="1.0" standalone="no"?>
<!DOCTYPE svg PUBLIC "-//W3C//DTD SVG 20010904//EN"
 "http://www.w3.org/TR/2001/REC-SVG-20010904/DTD/svg10.dtd">
<svg version="1.0" xmlns="http://www.w3.org/2000/svg"
 width="433.000000pt" height="439.000000pt" viewBox="0 0 433.000000 439.000000"
 preserveAspectRatio="xMidYMid meet">
<g transform="translate(0.000000,439.000000) scale(0.050000,-0.050000)"
fill="#111e36" stroke="none">
<path d="M2182 7641 c-119 -277 -163 -857 -82 -1081 118 -325 801 -926 1605
-1411 356 -214 208 -166 -363 119 -381 191 -606 327 -892 542 -236 178 -250
185 -250 136 0 -119 105 -484 186 -646 l84 -170 200 -104 c240 -125 655 -303
1048 -449 159 -59 275 -110 259 -113 -50 -9 -877 171 -1077 235 -104 34 -192
61 -195 61 -96 0 312 -543 449 -596 66 -26 513 -91 861 -125 338 -34 307 -52
-118 -69 -199 -8 -385 -21 -413 -28 l-51 -14 55 -51 c162 -150 446 -244 836
-276 451 -37 677 -169 852 -497 116 -217 124 -284 124 -1019 l0 -667 115 6
115 6 1 1720 1 1720 51 110 c118 257 438 421 568 291 67 -67 69 -66 69 40 0
170 -98 269 -266 269 -48 0 -83 17 -124 60 l-57 60 -304 0 c-377 0 -470 16
-677 117 -28 13 6 -100 58 -188 42 -73 116 -127 216 -157 31 -10 26 -24 -43
-117 -43 -58 -98 -143 -121 -190 -53 -106 -38 -108 -302 36 -1268 692 -2053
1472 -2290 2278 -28 92 -50 184 -50 203 0 74 -37 54 -78 -41z"/>
<path d="M3970 7532 c-360 -78 -738 -238 -1054 -446 -168 -111 -165 -104 -104
-193 60 -89 46 -89 184 4 559 380 1296 539 1967 425 1350 -231 2329 -1302
2568 -2812 42 -264 57 -268 42 -10 -87 1471 -1080 2706 -2430 3023 -284 67
-885 71 -1173 9z"/>
<path d="M1990 6112 c-304 -476 -485 -1037 -500 -1552 -7 -221 -5 -248 11
-150 99 623 267 1089 545 1517 l110 168 -40 62 c-51 80 -44 82 -126 -45z"/>
</g>
</svg>
